<?xml version="1.0" encoding="UTF-8"?>
<svg width="700pt" height="700pt" version="1.1" viewBox="0 0 700 700" xmlns="http://www.w3.org/2000/svg">
 <path d="m350 89.762c31.371 0 59.773 12.719 80.324 33.27l0.96484 1.0469c19.977 20.492 32.297 48.48 32.297 79.273 0 31.371-12.711 59.766-33.262 80.316-20.551 20.559-48.953 33.262-80.324 33.262-31.293 0-59.707-12.73-80.285-33.301-20.59-20.512-33.301-48.906-33.301-80.277 0-31.277 12.73-59.668 33.262-80.242l0.125-0.11328c20.562-20.516 48.945-33.23 80.199-33.23zm0-61.762c69.574 0 132.6 28.203 178.2 73.809 45.605 45.594 73.809 108.62 73.809 178.2 0 69.574-28.203 132.6-73.809 178.2-45.594 45.605-108.62 73.809-178.2 73.809-69.574 0-132.6-28.203-178.2-73.809-45.605-45.594-73.809-108.62-73.809-178.2 0-69.574 28.203-132.6 73.809-178.2 45.594-45.605 108.62-73.809 178.2-73.809zm160.64 91.363c-41.105-41.113-97.91-66.547-160.64-66.547s-119.53 25.434-160.64 66.547c-41.113 41.105-66.547 97.91-66.547 160.64 0 47.41 14.539 91.434 39.383 127.86 5.9844-11.719 13.227-22.699 21.543-32.762 25.98-31.426 62.539-53.918 104.11-61.891 3.3789-0.62109 6.9766-0.25 10.312 1.3086 7.9844 3.7188 16.461 6.6289 25.254 8.5781 8.3398 1.8516 17.262 2.8242 26.59 2.8242 9.3242 0 18.25-0.97266 26.59-2.8242 8.5312-1.8906 16.762-4.6836 24.531-8.2422 3.2656-1.7188 7.1289-2.3945 11.031-1.6484 41.57 7.9688 78.129 30.465 104.11 61.891 8.3125 10.059 15.559 21.039 21.543 32.762 24.836-36.418 39.383-80.438 39.383-127.86 0-62.73-25.434-119.53-66.547-160.64z" fill-rule="evenodd"/>
</svg>
