<?xml version="1.0" encoding="UTF-8"?>
<svg width="700pt" height="700pt" version="1.1" viewBox="0 0 700 700" xmlns="http://www.w3.org/2000/svg">
 <path d="m230.49 163.55c-11.742 0-24.516 0.40234-38.062 1.7656-31.676 3.168-46.375 26.164-48.648 44.363-1.0156 8.1914 4.1992 15.539 17.062 18.988 8.1719 2.1875 20.301 3.0781 34.316 3.3945-4.1133 15.297-6.3164 31.359-6.3164 47.934 0 101.41 82.336 183.75 183.75 183.75s183.75-82.336 183.75-183.75-82.336-183.75-183.75-183.75c-57.242 0-108.39 26.215-142.1 67.305zm-17.168 68.672c-4.5508 15.137-6.9844 31.168-6.9844 47.773 0 5.793 0.29688 11.531 0.875 17.168 10.746-5.1992 24.184-14.211 37.293-16.293 16.992-2.7109 43.348-1.4531 59.203 2.7812 10.047 2.6758 24.922 9.3633 32.637 15.855 5.8633 4.918 8.0508 10.57 7.543 14.859-1.0664 8.8711-4.1484 14.176-7.6992 17.621-3.7969 3.6562-8.4336 5.3906-13.316 6.2461-2.5742 0.45312-5.1992 0.64844-7.6289 1.0312-0.45312 0.085938-0.91016 0.17578-1.3477 0.28125-0.29688 0.085938-0.69922-0.070312-0.85938 0.22656-0.26172 0.48828 0 1.1016 0.085938 1.8008 0.15625 1.3984 0.52344 2.9062 0.94531 4.4805 1.3984 5.1797 3.5352 10.953 4.7969 16.574 1.6797 7.5586 1.6797 14.875-1.3125 20.965-3.0625 6.2305-9.2383 11.863-21.664 14.508-3.6211 0.76953-8.418-0.085938-13.352-3.0469-7.2109-4.3398-15.574-13.422-19.738-20.195-3.5703-5.8086-6.668-9.8008-9.5195-12.355-1.5586-1.3828-2.8008-2.293-4.0586-2.4141-0.83984-0.085938-1.5234 0.38672-2.2031 0.80469-1.1562 0.73437-2.2227 1.6641-3.2539 2.5898-2.7461 2.4844-5.3555 5.0039-7.875 6.5781-0.69922 0.4375-1.3828 0.92578-2.082 1.4336 29.766 45.027 80.832 74.742 138.79 74.742 11.359 0 22.453-1.1367 33.18-3.3242-2.8359-1.0508-5.7383-2.0117-8.6445-2.9922-10.797-3.6406-21.543-7.332-29.785-13.512-5.4414-4.0781-12.672-10.324-16.555-17.273-3.5508-6.3359-4.6367-13.211-1.8008-20.09 1.5938-3.8672 4.5508-7.875 9.6406-11.656 9.4688-7.0508 18.148-7.6992 26.637-6.8594 5.6523 0.54297 11.129 2.2383 16.816 1.0664 8.0312-1.6797 17.012-6.4922 25.656-9.6953 7.4375-2.7656 14.699-4.4102 21.176-3.6914 6.6836 0.73438 12.934 3.7812 18.812 7.9609 6.7539 4.7969 13.02 11.234 19.566 15.207 3.7812 2.293 7.6836 4.4961 11.586 6.6836 15.629-18.219 27.371-39.863 33.949-63.648-14.754-2.4844-33.652-4.1992-44.957-3.9727-3.6914 0.085938-7.1914 1.4688-10.727 2.7461-5.25 1.8906-10.535 3.6914-16.012 3.9727-11.148 0.61328-28.402-1.1211-37.66-3.7109-8.8008-2.4688-18.762-7.6133-22.242-16.082-3.9727-9.6406-12.074-23.172-4.1992-45.184 3.6211-10.133 10.57-17.516 17.867-24.484 5.5312-5.2852 11.359-10.203 14.508-17.062 3.9531-8.5586 5.8984-20.422 8.1211-32.234 2.5195-13.512 5.3359-26.969 10.43-36.715 3.4648-6.5977 5.8438-10.852 9.1719-14.875-24.781-14.664-53.672-23.082-84.523-23.082-46.621 0-88.797 19.234-118.98 50.191 3.1484 0.085938 6.1953 0.17578 9.1016 0.24609l46.621-34.527c1.5039-1.1211 3.3242-1.7148 5.1992-1.7148h20.004c3.2188 0 6.1758 1.7656 7.6992 4.6016 1.5391 2.8164 1.3828 6.2656-0.38672 8.9609l-15.066 22.871c9.2734-0.29688 16.73-0.91016 20.23-1.9766 13.613-4.1641 16.379-17.746 16.379-17.746 0.80469-4.0938 4.4102-7.0352 8.5742-7.0352h26.879c4.8125 0 8.7344 3.8867 8.75 8.6992 0.085938 20.477-3.4141 44.293-12.426 60.48-7.1406 12.809-17.605 21.156-31.641 21.98-8.0508 0.47266-19.566 0.99609-33.738 1.4883l24.691 29.523c1.8906 2.2578 2.5195 5.3359 1.6445 8.1719-0.85938 2.8359-3.0977 5.0234-5.9492 5.8438l-18.359 5.2656c-2.6094 0.75391-5.4062 0.26172-7.5938-1.3477l-62.547-45.922c-5.1992 0.050782-10.484 0.10547-15.871 0.14063-10.867 0.070312-21.926 0.24609-32.48 0.28125zm273.07 168.91c-2.7461-1.5586-5.4961-3.1484-8.1719-4.7773-5.8789-3.5508-11.621-8.8906-17.551-13.578-4.3242-3.4141-8.6641-6.6133-13.684-7.1562-5.3008-0.59375-11.289 1.8555-17.43 4.3906-8.1367 3.3242-16.434 7.1758-23.906 8.7344-6.2461 1.2969-12.355 0.48828-18.516-0.35156-5.7227-0.78906-11.637-1.75-18.078 3.0469-2.5391 1.8906-4.0586 3.5156-4.1641 5.4258-0.10547 2.0312 1.1016 3.8867 2.4336 5.6875 2.957 4.0078 7.2461 7.4219 10.516 9.8711 6.8438 5.1289 15.906 7.8906 24.867 10.922 9.9219 3.3438 19.758 6.9297 27.613 12.602 21.016-7.8047 40.039-19.723 56.07-34.809zm-261.48-44.766c0.54297-0.38672 1.1016-0.75391 1.6641-1.1016 3.1328-1.9766 6.2812-5.8633 10.012-8.4336 4.2891-2.9766 9.082-4.707 14.473-4.1484 6.8242 0.71875 16.066 5.793 26.652 23.031 2.5742 4.1641 7.332 9.5898 11.898 13.02 1.1016 0.82422 2.8359 1.7344 3.5 2.0664 4.5312-1.0508 7.3672-2.3984 8.6445-4.7266 0.89062-1.6445 0.875-3.5703 0.69922-5.5664-0.29688-3.2539-1.2617-6.668-2.293-10.047-1.7344-5.7383-3.6562-11.359-4.3242-16.117-0.69922-5.0234-0.085938-9.3984 1.8008-12.879 3.1484-5.8438 8.3633-8.3984 14.754-9.4492 2.3281-0.38672 4.8633-0.55859 7.332-0.98047 1.6797-0.29687 3.4648-0.52344 4.6719-2.0469 0.89062-1.1367 1.4688-2.7461 1.8555-4.8984-0.83984-0.78906-2.3984-2.2031-3.7461-3.1133-6.5625-4.4258-16.379-8.5742-23.293-10.414-13.914-3.7109-37.047-4.7773-51.941-2.3984-6.3164 0.99609-12.672 4.0938-18.672 7.2812-6.7383 3.5859-13.09 7.3516-18.551 9.625 3.1328 14.559 8.1719 28.422 14.859 41.301zm246.89-209.75c-3.3789 3.6562-5.1992 7.2266-8.3477 13.211-4.4102 8.4336-6.5625 20.125-8.7344 31.797-2.5039 13.352-4.9688 26.688-9.4336 36.348-4.0781 8.8555-11.164 15.574-18.305 22.398-5.3555 5.1094-10.816 10.273-13.477 17.711-5.7031 15.961 1.0156 25.656 3.9023 32.637 0.54297 1.3281 1.8203 2.1367 3.1328 2.9062 2.3633 1.3828 5.1445 2.293 7.6484 2.9922 7.8594 2.2031 22.523 3.6055 32.008 3.0977 3.7812-0.21094 7.3867-1.6797 11.008-2.9766 5.3359-1.9258 10.727-3.6562 16.309-3.7617 12.336-0.26172 33.109 1.6094 49.086 4.3398 1.4688-8.8906 2.2383-18.008 2.2383-27.316 0-54.582-26.371-103.06-67.043-133.39zm-203.04 68.672h25.691l37.977 45.414-1.3125 0.36719-62.352-45.781zm46.762-2.0664c20.301-0.59375 36.574-1.2969 46.969-1.9062 7.9102-0.47266 13.352-5.8086 17.379-13.039 6.4766-11.621 9.3281-27.879 10.047-43.156 0 0-11.727 0-11.727-0.015625-3.2734 7.6133-10.641 19.301-26.059 24.027-10.746 3.3086-56.559 3.0469-83.316 2.6758-19.023-0.24609-44.977-2.0664-74.637 0.92578-20.266 2.0312-30.609 15.68-32.777 27.527 0.68359 0.35156 1.6797 0.80469 2.5039 1.0859 2.8008 0.89062 6.2812 1.5234 10.273 2.0117 5.4258 0.66406 11.727 1.0312 18.602 1.2266 13.668 0.40234 29.523 0.10547 45.359-0.070313l-1.2617-0.92578c-3.0469-2.2227-4.3242-6.1758-3.1328-9.7656 1.1719-3.6055 4.5312-6.0391 8.3125-6.0391h56.473c2.5898 0 5.0586 1.1562 6.7188 3.1484l10.273 12.285zm-23.977-48.613c4.6367 0.035156 9.3984 0.070313 14.07 0.070313l12.672-19.234h-0.875l-25.863 19.164z" fill-rule="evenodd"/>
</svg>
